<?xml version="1.0" standalone="no"?>
<!DOCTYPE svg PUBLIC "-//W3C//DTD SVG 20010904//EN"
 "http://www.w3.org/TR/2001/REC-SVG-20010904/DTD/svg10.dtd">
<svg version="1.0" xmlns="http://www.w3.org/2000/svg"
 width="240.000000pt" height="180.000000pt" viewBox="0 0 240.000000 180.000000"
 preserveAspectRatio="xMidYMid meet">

<g transform="translate(0.000000,180.000000) scale(0.100000,-0.100000)"
fill="#000000" stroke="none">
<path d="M1190 1792 c0 -6 -131 -235 -291 -509 -160 -274 -381 -653 -491 -843
-111 -190 -213 -364 -229 -387 -15 -23 -25 -44 -22 -47 8 -8 2073 -8 2073 -1
0 3 -42 79 -94 168 -665 1150 -939 1623 -942 1626 -2 2 -4 -1 -4 -7z m100
-289 c46 -81 102 -177 123 -213 22 -36 53 -90 69 -120 16 -30 45 -82 65 -115
76 -131 93 -164 87 -180 -4 -10 -2 -15 6 -13 7 2 22 -13 33 -32 19 -31 19 -33
3 -20 -10 8 -22 23 -26 35 -8 19 -9 19 -9 -2 -1 -16 -7 -23 -22 -23 -11 0 -17
-4 -14 -10 3 -5 2 -10 -4 -10 -5 0 -11 5 -13 11 -2 6 -12 2 -22 -10 -18 -20
-18 -20 15 -16 18 3 37 9 43 15 14 14 26 13 20 -3 -2 -7 3 -21 12 -32 8 -11
12 -14 8 -6 -5 10 -3 12 5 7 7 -5 10 -14 7 -22 -3 -8 0 -14 7 -14 8 0 9 -3 1
-8 -7 -5 -2 -21 16 -49 15 -23 30 -40 34 -36 3 3 6 1 6 -6 0 -17 -52 -39 -57
-24 -3 7 -14 23 -25 35 l-20 23 17 -28 c9 -16 14 -35 11 -43 -9 -22 -35 -16
-48 11 -6 14 -15 25 -20 25 -5 0 0 -15 11 -34 21 -33 21 -33 2 -50 -19 -17
-20 -16 -43 24 -13 24 -28 52 -35 63 -11 19 -7 24 47 54 33 19 61 37 64 41 3
5 -28 4 -67 -1 -40 -5 -74 -13 -75 -18 -2 -5 -13 2 -24 16 -10 14 -17 29 -14
33 3 5 -1 18 -9 28 -13 17 -14 16 -10 -20 2 -21 2 -36 -2 -33 -11 11 -13 66
-2 73 6 3 16 -2 23 -11 11 -15 13 -15 25 -1 7 8 10 20 7 25 -4 5 -1 13 5 17 8
4 9 3 5 -4 -16 -27 4 -9 30 26 l27 37 -27 -25 c-15 -14 -29 -24 -32 -22 -13 7
-24 -1 -24 -18 0 -11 -5 -20 -11 -20 -6 0 -8 7 -5 17 6 15 4 15 -14 -2 -11
-10 -20 -14 -20 -9 0 5 -5 2 -11 -6 -8 -12 -9 -11 -4 6 3 14 -1 26 -12 35 -12
10 -15 10 -9 1 4 -7 3 -19 -4 -27 -7 -9 -8 -15 -1 -20 6 -3 22 -30 36 -58 24
-51 45 -87 55 -97 3 -3 14 -23 24 -45 34 -68 139 -250 150 -257 6 -4 -197 -8
-451 -8 l-461 0 23 43 c12 24 35 63 49 85 14 23 23 42 19 42 -5 0 -3 4 3 8 5
4 23 30 38 57 16 28 39 69 53 93 13 23 21 48 17 54 -4 6 -3 8 3 5 14 -9 37 38
29 58 -4 10 -2 14 5 9 7 -4 10 -1 7 7 -3 8 -15 13 -27 11 -13 -2 -31 4 -41 13
-10 9 -21 12 -24 7 -5 -8 41 -37 55 -34 3 0 6 -6 6 -14 0 -8 -4 -14 -8 -14 -5
0 -18 -18 -29 -39 -11 -22 -24 -42 -30 -46 -5 -3 -41 11 -79 32 -53 30 -68 42
-61 53 5 8 7 17 4 21 -2 4 4 10 13 14 10 3 19 1 21 -4 2 -6 10 -11 18 -11 8 0
14 -4 14 -9 0 -5 13 -14 29 -19 26 -9 30 -7 40 15 8 17 9 29 2 36 -5 5 -7 15
-5 22 8 21 -22 24 -39 4 -9 -10 -13 -19 -9 -19 4 0 -1 -5 -11 -11 -10 -6 -21
-8 -24 -5 -4 3 -1 6 5 6 7 0 12 7 12 15 0 8 -5 15 -11 15 -5 0 -7 -6 -4 -12 4
-7 0 -5 -8 5 -17 21 -27 22 -27 2 0 -7 -6 -18 -14 -22 -7 -4 -15 -14 -17 -21
-3 -8 -8 -6 -16 8 -11 16 -10 18 2 14 18 -7 20 12 3 20 -7 3 -2 3 12 -1 22 -5
23 -4 12 10 -11 13 -11 21 0 44 7 15 18 28 25 28 6 0 15 3 19 8 4 4 2 7 -5 7
-18 0 -8 25 10 25 8 0 19 -6 25 -14 9 -12 12 -11 17 3 4 9 3 14 -2 11 -5 -3
-12 -1 -16 5 -4 6 -11 8 -16 5 -15 -10 -10 12 13 52 12 21 25 40 28 43 3 3 20
34 39 70 19 36 40 72 47 81 8 8 14 19 14 24 0 4 20 41 45 82 25 40 45 76 45
78 0 3 17 33 38 67 21 35 41 70 45 78 4 8 18 33 32 55 14 22 28 46 31 52 3 7
9 11 13 9 4 -3 45 -72 91 -153z m-423 -675 c-3 -8 -6 -5 -6 6 -1 11 2 17 5 13
3 -3 4 -12 1 -19z m23 -28 c0 -14 -24 -23 -47 -17 -15 3 -14 6 7 15 32 14 40
14 40 2z m785 -10 c3 -5 1 -10 -4 -10 -6 0 -11 5 -11 10 0 6 2 10 4 10 3 0 8
-4 11 -10z m28 -15 c4 -8 2 -17 -3 -20 -6 -4 -10 3 -10 14 0 25 6 27 13 6z
m-743 -25 c0 -5 -2 -10 -4 -10 -3 0 -8 5 -11 10 -3 6 -1 10 4 10 6 0 11 -4 11
-10z m763 -13 c3 -8 -1 -14 -9 -14 -15 0 -18 9 -7 20 9 9 10 9 16 -6z m-993
-1 c0 -3 -4 -8 -10 -11 -5 -3 -10 -1 -10 4 0 6 5 11 10 11 6 0 10 -2 10 -4z
m100 -57 c25 -28 27 -35 18 -63 -17 -49 -47 -76 -85 -76 -47 0 -83 37 -83 86
0 83 92 116 150 53z m905 2 c-6 -5 -25 10 -25 20 0 5 6 4 14 -3 8 -7 12 -15
11 -17z m33 -121 c38 -67 22 -120 -37 -120 -20 0 -31 -7 -40 -27 l-12 -26 -16
23 c-13 18 -14 29 -6 51 11 27 10 29 -12 23 -17 -4 -26 0 -34 15 -12 22 -14
20 79 75 25 14 47 26 50 26 3 0 15 -18 28 -40z m-1059 -34 c55 -69 58 -77 37
-95 -19 -16 -176 5 -176 23 1 30 18 39 66 31 l48 -7 -33 37 c-31 35 -31 38
-15 56 9 10 18 19 20 19 1 0 25 -29 53 -64z m524 -263 l-17 -28 25 23 c28 25
49 28 67 10 18 -18 14 -28 -12 -28 -34 0 -87 -20 -80 -31 3 -5 1 -9 -4 -9 -6
0 -15 15 -21 32 -10 28 -9 35 6 45 9 7 25 13 35 13 18 0 18 -1 1 -27z m-604
-54 c17 -40 31 -76 31 -80 0 -15 -50 -10 -56 6 -8 20 -64 20 -64 0 0 -9 -9
-15 -25 -15 -31 0 -31 8 3 92 24 59 30 68 53 68 23 0 30 -9 58 -71z m91 16 c0
-48 2 -55 20 -55 18 0 20 7 20 55 0 55 0 55 31 55 l31 0 -4 -60 c-5 -74 -26
-100 -78 -100 -37 0 -66 21 -70 50 -1 8 -2 36 -1 63 1 43 3 47 26 47 24 0 25
-3 25 -55z m250 36 c0 -13 -8 -21 -22 -23 -20 -3 -23 -10 -26 -60 -3 -54 -5
-58 -27 -58 -24 0 -25 3 -25 60 0 53 -2 60 -20 60 -13 0 -20 7 -20 20 0 18 7
20 70 20 62 0 70 -2 70 -19z m61 2 c1 -10 1 -21 0 -25 0 -5 10 -8 24 -8 20 0
25 5 25 25 0 20 5 25 24 25 22 0 24 -5 28 -52 5 -88 0 -108 -28 -108 -20 0
-24 5 -24 31 0 26 -3 30 -22 27 -17 -2 -24 -11 -26 -30 -3 -22 -9 -28 -28 -28
-23 0 -24 2 -24 80 0 79 0 80 25 80 17 0 25 -6 26 -17z m457 -16 c12 -24 11
-31 -1 -50 -13 -20 -13 -26 -1 -50 14 -26 14 -27 -14 -27 -20 0 -33 7 -42 25
-14 27 -30 24 -30 -6 0 -14 -7 -19 -25 -19 -25 0 -25 1 -25 80 l0 81 62 -3
c58 -3 64 -5 76 -31z m82 -47 c0 -79 0 -80 -25 -80 -25 0 -25 1 -25 80 0 79 0
80 25 80 25 0 25 -1 25 -80z m225 60 c8 -26 22 -26 30 0 4 14 15 20 36 20 36
0 36 -5 3 -54 -15 -22 -27 -53 -28 -70 -1 -26 -5 -31 -25 -31 -19 0 -24 6 -27
33 -5 39 -49 109 -59 93 -3 -6 -15 -11 -26 -11 -17 0 -19 -7 -19 -60 0 -57 -1
-60 -25 -60 -24 0 -25 3 -25 60 0 57 -1 60 -25 60 -18 0 -25 5 -25 20 0 19 7
20 104 20 96 0 105 -2 111 -20z m-547 -93 c17 6 15 -7 -5 -29 -21 -24 -46 -23
-69 4 -19 21 -19 21 4 16 12 -4 22 -2 22 2 0 5 -10 10 -22 12 -24 3 -34 28
-24 54 5 12 15 7 44 -24 20 -22 43 -37 50 -35z m80 51 c14 -14 15 -28 2 -48
-8 -13 -11 -12 -24 5 -15 19 -15 18 -9 -14 6 -35 -6 -51 -40 -51 -16 0 -16 2
-1 25 10 15 15 38 12 60 -4 32 -2 35 22 35 14 0 31 -5 38 -12z"/>
<path d="M1177 1401 c-16 -46 -17 -47 -57 -46 -53 2 -67 -8 -37 -28 53 -34 57
-44 42 -86 -7 -22 -11 -42 -8 -45 6 -6 54 23 65 39 7 10 16 6 76 -33 19 -13
22 -13 22 0 0 8 -5 30 -11 48 -11 31 -10 34 27 66 42 36 43 34 -31 38 -25 1
-32 7 -45 43 -8 23 -18 44 -21 47 -2 3 -12 -16 -22 -43z"/>
<path d="M860 982 c0 -5 7 -9 15 -9 8 0 12 4 9 9 -3 4 -9 8 -15 8 -5 0 -9 -4
-9 -8z"/>
<path d="M1032 962 c-11 -25 -11 -25 4 -10 9 9 15 21 13 27 -2 6 -10 -2 -17
-17z"/>
<path d="M900 971 c0 -6 4 -13 10 -16 6 -3 7 1 4 9 -7 18 -14 21 -14 7z"/>
<path d="M1377 973 c-4 -3 -7 -11 -7 -17 0 -6 5 -5 12 2 6 6 9 14 7 17 -3 3
-9 2 -12 -2z"/>
<path d="M1502 940 c-12 -19 -11 -20 8 -8 20 13 27 28 12 28 -4 0 -13 -9 -20
-20z"/>
<path d="M1578 930 c-3 -19 -1 -39 5 -45 7 -7 7 -6 2 4 -4 7 -3 16 2 20 5 3 7
17 3 31 -6 23 -7 23 -12 -10z"/>
<path d="M905 922 c-10 -10 -5 -20 12 -26 10 -4 14 -4 10 0 -4 4 -2 12 3 19 7
8 5 12 -5 12 -8 0 -17 -3 -20 -5z"/>
<path d="M1330 911 c0 -6 4 -13 10 -16 6 -3 7 1 4 9 -7 18 -14 21 -14 7z"/>
<path d="M1445 910 c6 -9 4 -12 -7 -8 -8 4 -20 -2 -26 -13 -8 -12 -8 -19 -2
-19 5 0 10 5 10 10 0 6 6 10 14 10 20 0 29 17 15 26 -8 5 -9 3 -4 -6z"/>
<path d="M1036 896 c5 -12 4 -17 -3 -13 -5 3 -19 -7 -31 -22 -18 -25 -19 -31
-7 -47 13 -17 14 -17 15 -2 0 9 7 24 16 32 8 9 11 16 5 16 -6 0 -11 5 -11 11
0 5 4 8 9 4 15 -9 25 15 12 28 -9 9 -10 7 -5 -7z"/>
<path d="M800 884 c0 -8 5 -12 10 -9 6 4 8 11 5 16 -9 14 -15 11 -15 -7z"/>
<path d="M946 891 c-3 -5 1 -11 9 -15 8 -3 15 -1 15 5 0 6 5 7 10 4 6 -4 8
-11 5 -16 -4 -5 -1 -9 4 -9 14 0 14 13 -1 28 -14 14 -35 16 -42 3z"/>
<path d="M1371 844 c0 -11 3 -14 6 -6 3 7 2 16 -1 19 -3 4 -6 -2 -5 -13z"/>
<path d="M1615 840 c-3 -5 -1 -10 4 -10 6 0 11 5 11 10 0 6 -2 10 -4 10 -3 0
-8 -4 -11 -10z"/>
<path d="M734 638 c-12 -40 45 -60 60 -21 4 9 1 22 -5 29 -17 21 -47 17 -55
-8z"/>
<path d="M1710 516 c0 -15 18 -31 26 -23 7 7 -7 37 -17 37 -5 0 -9 -6 -9 -14z"/>
<path d="M565 200 c-3 -5 -1 -10 4 -10 6 0 11 5 11 10 0 6 -2 10 -4 10 -3 0
-8 -4 -11 -10z"/>
<path d="M1400 225 c0 -8 9 -15 20 -15 11 0 20 7 20 15 0 8 -9 15 -20 15 -11
0 -20 -7 -20 -15z"/>
</g>
</svg>
